<svg xmlns="http://www.w3.org/2000/svg" viewBox="0 0 50 50"><defs><style>.cls-1{fill:#d14a47}.cls-2{fill:#fff}</style></defs><title>gulp</title><path class="cls-1" d="M31.11 48.49l.48-8 1.32-2.26a23.15 23.15 0 0 1-8.06 1.23 23.09 23.09 0 0 1-8-1.21l1.48 2.47.53 7.77c0 .83 2.75 1.51 6.13 1.51s6.13-.67 6.13-1.51M29.6 11.16l1-4 5.58-5.87L34.71.06l-5.9 6.25-1.17 4.76Q26.32 11 25 11c-6.22 0-11.26.71-11.26 1.58s5 1.58 11.26 1.58 11.26-.71 11.26-1.58c0-.64-2.73-1.2-6.66-1.44"/><path class="cls-2" d="M29 13.39a4.78 4.78 0 0 1-.86.05c-.64 0-1.1 0-1.28-.17a.29.29 0 0 1-.08-.19.25.25 0 0 1 .18-.22l.1.15-.07.05a2.73 2.73 0 0 0 1.16.14c.5 0 1.11 0 1.11-.13l-.13-.07.1-.15c.13 0 .24.12.24.25s-.29.26-.48.29"/><path class="cls-1" d="M36.17 1.33c.14-.16-.07-.58-.48-.93s-.84-.5-1-.34.07.58.48.92.84.5 1 .34M30.84 29c-.13-1.27 2.78-3.11 2-3.17-1.61.09-2.41 1.89-3.22 3.77-.3.69-1.31 3.63-2 3.26S28.54 30 29 28.61c-.49.36-2.31 1.77-2.78.45-.75.64-2.36 1-2.18-.69-.4.71-1.3 1.7-2.37 1.29-1.41-.54.82-5 1.37-4.82s-.11 1.25-.29 1.65c-.38.88-.83 2-.53 2.21.51.39 1.89-1.46 1.92-1.5.26-.34 1-2.58 1.59-2.32s-1.48 3.21-.71 3.8c.16.12.8-.07 1.19-.49s.17-.88 1-2.88 1.59-4.5 2.17-4.31.1 1.47-.11 1.95c-1 2.24-2.65 5.94-1.86 5.66a3.36 3.36 0 0 0 2-1.2c.77-.91.74-2.4 1.26-2.37s.43.51.3.88c.51-.58 2.41-1.81 2.87-.59.54 1.44-2.72 3.51-1.91 3.41a4.93 4.93 0 0 0 2.63-1.66L36 13.48s-1.52 1.26-11.19 1.26l-11-1.23 1.29 12.4C15.79 24 17.41 20 20 20.17c1.16.06 2.71 2.3 1.38 2.37-.56 0-.62-1.12-1.29-1.29a2 2 0 0 0-1.58.69c-.86.84-2.72 4.17-2.47 5.84.31 2.12 2.92-.74 3.36-1.58.31-.6.52-2.36 1.2-2.18s-.06 2-.55 3.62c-.55 1.81-.84 3.72-1.54 3.5s.44-2.56.4-3c-.65.6-1.85 2.13-3.39 1.37l.8 7.7s2.12 1.68 8.52 1.68l8.6-1.65 1-8.92c-.81.79-3.38 2.19-3.54.61"/><path class="cls-2" d="M18.88 28.18c0 .41-1.09 2.75-.4 3s1-1.69 1.54-3.5c.49-1.61 1.23-3.44.55-3.62s-.89 1.58-1.2 2.18c-.44.85-3.05 3.7-3.36 1.58-.25-1.66 1.61-5 2.47-5.84a2 2 0 0 1 1.58-.69c.67.17.72 1.32 1.29 1.29 1.33-.08-.22-2.31-1.38-2.37-2.55-.13-4.16 3.76-4.85 5.71l.39 3.68c1.49.69 2.72-.82 3.37-1.42zm13.03.53c-.81.11 2.45-2 1.91-3.41-.46-1.21-2.36 0-2.87.59.13-.36.21-.84-.3-.88s-.48 1.46-1.26 2.37a3.36 3.36 0 0 1-2 1.2c-.79.28.89-3.42 1.86-5.66.21-.48.68-1.76.11-1.95S28 23.29 27.2 25.3s-.75 2.61-1 2.88-1 .61-1.19.49c-.78-.59 1.3-3.54.71-3.8s-1.33 2-1.59 2.32c0 0-1.41 1.89-1.92 1.5-.3-.23.15-1.33.53-2.21.17-.4.84-1.42.29-1.65s-2.79 4.28-1.37 4.82c1.08.41 2-.58 2.37-1.29-.18 1.68 1.42 1.33 2.18.69.47 1.32 2.28-.09 2.78-.45-.43 1.43-2 3.85-1.29 4.21s1.68-2.58 2-3.26c.81-1.88 1.61-3.67 3.22-3.77.75.06-2.17 1.9-2 3.17.16 1.57 2.68.21 3.52-.59l.14-1.29a4.93 4.93 0 0 1-2.67 1.64z"/></svg>