<svg xmlns="http://www.w3.org/2000/svg" viewBox="0 0 50 50"><defs><style>.cls-1{fill:#ffdf00}.cls-2{fill:#25272c}</style></defs><title>js</title><path class="cls-1" d="M0 0h50v50H0z"/><path class="cls-2" d="M13.15 41.78L17 39.47c.74 1.31 1.41 2.42 3 2.42s2.52-.6 2.52-3V23h4.7v16c0 4.87-2.85 7.08-7 7.08a7.29 7.29 0 0 1-7-4.3m16.62-.5l3.83-2.22a5.11 5.11 0 0 0 4.63 2.85c1.95 0 3.19-1 3.19-2.32 0-1.61-1.28-2.18-3.42-3.12L36.81 36c-3.39-1.44-5.64-3.26-5.64-7.08 0-3.52 2.68-6.21 6.88-6.21a6.94 6.94 0 0 1 6.68 3.76l-3.66 2.35a3.2 3.2 0 0 0-3-2 2 2 0 0 0-2.25 2c0 1.41.87 2 2.89 2.85l1.17.5c4 1.71 6.24 3.46 6.24 7.38 0 4.23-3.32 6.54-7.79 6.54s-7.18-2.08-8.56-4.8"/></svg>