<svg xmlns="http://www.w3.org/2000/svg" viewBox="0 0 40 39"><defs><style>.cls-1{fill:#1b1934}.cls-2{fill:#75c3ed}</style></defs><title>ps_1</title><g id="Слой_1-2"><path class="cls-1" d="M1.67 1.67h36.66v35.66H1.67z"/><path class="cls-2" d="M1.67 1.67h36.66v35.66H1.67zM0 39h40V0H0zm27-23c-1.32 0-1.77.67-1.77 1.22s.3 1 2.07 1.93c2.62 1.27 3.43 2.48 3.43 4.27 0 2.67-2 4.1-4.78 4.1a7.25 7.25 0 0 1-3.42-.72c-.12 0-.13-.13-.13-.27v-2.45c0-.17.08-.22.2-.13a6.19 6.19 0 0 0 3.35 1c1.32 0 1.87-.55 1.87-1.3 0-.6-.38-1.13-2.07-2-2.37-1.13-3.35-2.28-3.35-4.2 0-2.15 1.68-3.93 4.6-3.93a7.66 7.66 0 0 1 3 .48.37.37 0 0 1 .17.33v2.28c0 .13-.08.22-.25.17A5.63 5.63 0 0 0 27 16zm-14.37 2h1.35c2 0 3.78-.68 3.78-3.33 0-2.12-1.32-3.18-3.53-3.18h-1.6zm-3-8.85c0-.12.23-.2.37-.2 1.07 0 2.65-.08 4.3-.08 4.62 0 6.42 2.53 6.42 5.77 0 4.23-3.07 6-6.83 6h-1.3V27c0 .13 0 .2-.2.2H9.87c-.13 0-.2 0-.2-.2V9.13z"/></g></svg>