<svg xmlns="http://www.w3.org/2000/svg" viewBox="0 0 44.053 44.053"><path fill-rule="evenodd" d="M14.411 12.953l-1.454-1.393a2.122 2.122 0 0 0-2.907 0l-7.995 7.658-1.454 1.393a1.911 1.911 0 0 0 0 2.785l1.454 1.393 7.995 7.658c.803.77 2.104.77 2.907 0l1.454-1.393a1.91 1.91 0 0 0 0-2.784L7.87 22.004l6.541-6.266a1.911 1.911 0 0 0 0-2.785zm-9.448 9.051l7.995 7.659-1.454 1.392-7.995-7.658-1.454-1.393 1.454-1.393 7.995-7.658 1.454 1.393-7.995 7.658zm38.488-1.375l-1.454-1.391-7.995-7.647a2.12 2.12 0 0 0-2.907 0l-1.454 1.391a1.905 1.905 0 0 0 0 2.78l6.541 6.258-6.541 6.257a1.906 1.906 0 0 0 0 2.781l1.454 1.391a2.122 2.122 0 0 0 2.907 0l7.995-7.648 1.454-1.39a1.908 1.908 0 0 0 0-2.782zm-2.907 2.781l-7.995 7.647-1.454-1.391 7.995-7.648-7.995-7.648 1.454-1.391 7.995 7.647 1.454 1.391-1.454 1.393zM28.321.697L26.373.165a2.02 2.02 0 0 0-2.48 1.415l-9.582 39.3a2.017 2.017 0 0 0 1.415 2.478l1.948.531a2.02 2.02 0 0 0 2.481-1.414l9.582-39.3A2.017 2.017 0 0 0 28.321.697zM18.207 41.942l-1.948-.531 9.582-39.3 1.947.532-9.581 39.299z"/></svg>