<svg width="32" height="32" fill="#fff" xmlns="http://www.w3.org/2000/svg" viewBox="0 0 525.153 525.153"><path d="M262.576 83.543C143.235 83.543 41.29 157.765 0 262.576c41.29 104.812 143.235 179.033 262.576 179.033s221.264-74.221 262.576-179.033C483.841 157.765 381.917 83.543 262.576 83.543zm0 298.374c-65.885 0-119.341-53.456-119.341-119.341s53.456-119.341 119.341-119.341 119.341 53.456 119.341 119.341-53.456 119.341-119.341 119.341zm0-190.937c-39.649 0-71.596 31.969-71.596 71.596s31.969 71.596 71.596 71.596 71.596-31.969 71.596-71.596-31.947-71.596-71.596-71.596z"/></svg>