<svg xmlns="http://www.w3.org/2000/svg" width="32" height="32" viewBox="0 0 32 32"><title>htmlacademy</title><path fill="#fff" d="M16.128.001H16L3.392 1.345v23.168L16 32.001l12.608-7.488V1.345L16.128.001zm10.88 23.551L16 30.08 4.992 23.552V14.08l10.944 6.528v1.152l-7.488-4.48v1.152L16 22.976v1.216l-7.552-4.48v1.152L16 25.344l7.616-4.544v-4.864l3.392-2.048v9.664zm-.064-10.88l-3.008 1.792-1.408.832-6.592-3.904v1.152l5.632 3.392h-.064l-.128.064-.832.448-4.672-2.752v1.152l3.712 2.176-.896.576-2.752-1.664v1.152l1.856 1.088-1.856 1.088L5.056 12.8l10.88-6.528 11.008 6.4zm.064-1.152L15.936 4.992 4.992 11.52V2.816L16 1.664l11.008 1.152v8.704z"/></svg>