<svg xmlns="http://www.w3.org/2000/svg" style="display:none"><symbol id="dots" viewbox="0 0 612 612"><path d="M55.636 250.364C24.907 250.364 0 275.27 0 306c0 30.73 24.907 55.636 55.636 55.636S111.273 336.73 111.273 306c0-30.73-24.907-55.636-55.637-55.636zm259.637 0c-30.73 0-55.636 24.907-55.636 55.636 0 30.729 24.907 55.636 55.636 55.636 30.729 0 55.636-24.905 55.636-55.636 0-30.73-24.906-55.636-55.636-55.636zm241.091 0c-30.73 0-55.636 24.907-55.636 55.636 0 30.729 24.906 55.636 55.636 55.636C587.093 361.636 612 336.73 612 306c0-30.73-24.907-55.636-55.636-55.636z"/></symbol><symbol id="github" viewbox="0 0 32 32"><title>github</title><path fill="#fff" d="M16 .395c-8.836 0-16 7.163-16 16 0 7.069 4.585 13.067 10.942 15.182.8.148 1.094-.347 1.094-.77 0-.381-.015-1.642-.022-2.979-4.452.968-5.391-1.888-5.391-1.888-.728-1.849-1.776-2.341-1.776-2.341-1.452-.993.11-.973.11-.973 1.606.113 2.452 1.649 2.452 1.649 1.427 2.446 3.743 1.739 4.656 1.33.143-1.034.558-1.74 1.016-2.14-3.554-.404-7.29-1.777-7.29-7.907 0-1.747.625-3.174 1.649-4.295-.166-.403-.714-2.03.155-4.234 0 0 1.344-.43 4.401 1.64a15.353 15.353 0 0 1 4.005-.539c1.359.006 2.729.184 4.008.539 3.054-2.07 4.395-1.64 4.395-1.64.871 2.204.323 3.831.157 4.234 1.026 1.12 1.647 2.548 1.647 4.295 0 6.145-3.743 7.498-7.306 7.895.574.497 1.085 1.47 1.085 2.963 0 2.141-.019 3.864-.019 4.391 0 .426.288.925 1.099.768C27.421 29.457 32 23.462 32 16.395c0-8.837-7.164-16-16-16z"/></symbol></svg>