<svg xmlns="http://www.w3.org/2000/svg" viewBox="0 0 50 50"><defs><style>.cls-1{fill:#0073b9}.cls-2{fill:#00aade}.cls-3{fill:#fff}.cls-4{fill:#ebebeb}</style></defs><title>css3</title><g id="Layer_1"><path id="Shape" class="cls-1" d="M6.82 45l-4-45h44.41l-4 45L25 50z"/><path id="Shape-2" class="cls-2" d="M25 46.17l14.71-4 3.46-38.49H25z"/><g id="Group"><path id="Shape-3" class="cls-3" d="M25 20h7.36l.51-5.65H25V8.81h14l-.13 1.48-1.42 15.21H25z"/><path id="Shape-4" class="cls-4" d="M25 34.32l-6.2-1.66-.4-4.4h-5.57l.78 8.67L25 40.07z"/><path id="Shape-5" class="cls-3" d="M31.89 25.27l-.67 7.39L25 34.32v5.74l11.41-3.14.08-.93 1-10.73z"/><path id="Shape-6" class="cls-4" d="M25 8.81v5.51H11.58l-.11-1.24-.25-2.8-.13-1.48z"/><path id="Shape-7" class="cls-4" d="M25 20v5.51h-6.12l-.11-1.24-.25-2.8-.14-1.47z"/></g></g></svg>