<svg xmlns="http://www.w3.org/2000/svg" viewBox="0 0 50 50"><defs><style>.cls-1{fill:#006ab2}</style></defs><title>jquery</title><path class="cls-1" d="M3.18 12.09c-4.4 6.35-3.9 14.65-.51 21.42l.25.51c.08.08.08.17.17.34s.08.08.08.17l.17.34a3.68 3.68 0 0 1 .34.59c.08.08.08.17.17.34l.34.59s.08.17.17.25l.51.76.08.08.51.68.17.25a1.52 1.52 0 0 1 .42.59c.08.08.08.17.17.17a5.48 5.48 0 0 0 .68.76l.68.68.17.17.51.51c.08.08.17.17.25.17a5.11 5.11 0 0 1 .68.68l.08.08.68.51.25.25.51.42.25.25.59.42s.17.08.25.17l.08.08.59.42s.17.08.25.17a5.7 5.7 0 0 1 .93.59l.25.17.68.42a.64.64 0 0 0 .34.17l.51.25a.08.08 0 0 1 .08.08.3.3 0 0 1 .17.08c.25.08.51.25.76.34l.17.08a4.13 4.13 0 0 0 .93.34l.25.08.85.34h.08c.34.08.68.25.93.34l.25.08a4.47 4.47 0 0 0 1 .25c21.42 3.9 27.69-12.87 27.69-12.87-5.25 6.86-14.56 8.64-23.29 6.6l-1-.25-.25-.08a4.13 4.13 0 0 1-.93-.34c-.08 0-.08 0-.17-.08a3.54 3.54 0 0 1-.85-.34l-.25-.08c-.34-.08-.59-.25-.93-.34l-.17-.08c-.25-.08-.51-.25-.76-.34l-.25-.08a2.12 2.12 0 0 1-.59-.34c-.17-.08-.25-.17-.42-.17a4.73 4.73 0 0 1-.68-.42l-.25-.17a5.7 5.7 0 0 1-.93-.59l-.25-.17-.68-.42c-.08-.08-.17-.08-.17-.17l-.59-.42s-.17-.17-.25-.17a3.58 3.58 0 0 0-.59-.42c-.08-.08-.17-.17-.25-.17l-.68-.59a.08.08 0 0 1-.08-.08c-.25-.25-.51-.42-.76-.68l-.17-.17-.51-.51-.17-.17-.72-.64c-.25-.25-.42-.51-.68-.76-.08-.08-.08-.17-.17-.17l-.51-.59s-.08-.17-.17-.25L9 31.23C4.11 24.54 2.41 15.39 6.31 7.86m10.58-1.19c-3.22 4.66-3 10.75-.51 15.66a22.07 22.07 0 0 0 1.44 2.37 13.08 13.08 0 0 0 1.61 2l.76.76.17.17c.25.25.51.42.76.68A5.93 5.93 0 0 0 22 29c.08.08.17.08.17.17a8.87 8.87 0 0 0 .93.68l.42.25s.17.08.17.17l.68.42a.08.08 0 0 1 .08.08l.59.34a.3.3 0 0 1 .17.08l.42.25h.08l.85.42.17.08a5.83 5.83 0 0 1 .68.25c.08 0 .17.08.34.08s.42.17.68.25l.25.08a3.82 3.82 0 0 0 .93.25c16.6 2.71 20.41-10 20.41-10-3.47 5-10.16 7.37-17.27 5.5l-.93-.25-.25-.08-.68-.25-.25-.08a5.83 5.83 0 0 1-.68-.25.3.3 0 0 1-.17-.08l-.85-.42s-.25-.17-.42-.25-.17-.08-.25-.17a1.77 1.77 0 0 1-.51-.34l-.17-.08-.68-.42c-.08-.08-.17-.08-.17-.17l-.42-.25a6.46 6.46 0 0 1-.93-.68c-.08-.08-.17-.08-.17-.17a20 20 0 0 1-6.77-9.65 14.93 14.93 0 0 1 1.19-12m8.85-.07a9.62 9.62 0 0 0-.76 9.31 12.84 12.84 0 0 0 7.54 7l.42.17s.08 0 .17.08a1.57 1.57 0 0 0 .59.17c9.14 1.78 11.6-4.66 12.28-5.67-2.2 3.13-5.84 3.9-10.33 2.79-.34-.08-.76-.25-1.1-.34l-1.3-.47c-.76-.42-1.52-.85-2.29-1.35-4-3-6.52-8.81-3.9-13.55" id="Layer_6"/></svg>