<svg xmlns="http://www.w3.org/2000/svg" viewBox="0 0 50 50"><defs><style>.cls-1{fill:#cd6498}</style></defs><title>sass</title><path class="cls-1" d="M43 27.79a10.27 10.27 0 0 0-4.53 1.06 9.38 9.38 0 0 1-1-2.35 6.54 6.54 0 0 1-.09-2 15.93 15.93 0 0 1 .6-2.14c0-.09-.11-.52-1.11-.53s-1.88.2-2 .46a11.3 11.3 0 0 0-.42 1.5 35.75 35.75 0 0 1-3.06 5.9 6 6 0 0 1-.64-1.69 6.54 6.54 0 0 1-.09-2 15.93 15.93 0 0 1 .6-2.14c0-.09-.11-.52-1.11-.53s-1.88.2-2 .46-.21.89-.42 1.5-2.65 6.06-3.28 7.48c-.32.73-.61 1.3-.81 1.7v.07l-.27.52c-.14.25-.28.48-.35.48A3.28 3.28 0 0 1 23 34c.36-1.89 1.24-4.84 1.23-5s.17-.57-.57-.83a.89.89 0 0 0-1 .18c-.06 0-.11.16-.11.16s.79-3.32-1.51-3.32c-1.45 0-3.44 1.58-4.42 3l-3.36 1.84-1.63.97-.11-.12c-2.79-3-8-5.11-7.74-9.13.08-1.46.59-5.32 9.92-10 7.65-3.83 13.77-2.75 14.84-.44 1.51 3.33-3.27 9.53-11.22 10.42-3 .34-4.62-.83-5-1.27s-.48-.48-.63-.39-.1.55 0 .79a4.72 4.72 0 0 0 2.87 2.27c1.46.48 5 .75 9.31-.92 4.81-1.87 8.57-7.07 7.47-11.42S22.88 4.91 16 7.38a34.73 34.73 0 0 0-11.79 6.77C.4 17.72-.2 20.84.05 22.13c.89 4.62 7.23 7.63 9.77 9.87l-.35.2c-1.27.63-6.1 3.17-7.32 5.85-1.37 3 .21 5.23 1.27 5.52a7.79 7.79 0 0 0 8.41-3.42 8.5 8.5 0 0 0 .75-7.8v-.06l1-.59c.64-.38 1.28-.74 1.84-1a12.25 12.25 0 0 0-.69 3.3 7 7 0 0 0 1.49 4.84 1.65 1.65 0 0 0 1.2.39c1.07 0 1.56-.89 2.1-2 .66-1.3 1.25-2.81 1.25-2.81S20 38.54 22 38.54c.73 0 1.46-1 1.8-1.44l.06-.1.12-.19c.29-.51.95-1.68 1.92-3.61 1.26-2.49 2.47-5.61 2.47-5.61a18 18 0 0 0 .48 2 19.37 19.37 0 0 0 1 2.35l-.47.65c-.23.31-.5.65-.77 1a28.48 28.48 0 0 0-2.34 3 .81.81 0 0 0 .21 1.08 2 2 0 0 0 1.23.2 5.46 5.46 0 0 0 1.84-.42 6.35 6.35 0 0 0 1.58-.83 3.54 3.54 0 0 0 1.51-3.13 6.31 6.31 0 0 0-.58-2.21l.26-.39a41.44 41.44 0 0 0 2.73-4.76 18 18 0 0 0 .48 2 14.19 14.19 0 0 0 .89 2 8.72 8.72 0 0 0-2.67 3.46c-.58 1.67-.13 2.42.72 2.6a2.59 2.59 0 0 0 1.34-.27 6.05 6.05 0 0 0 1.8-.92 3.84 3.84 0 0 0 1.87-3.1 6 6 0 0 0-.42-1.83 9.48 9.48 0 0 1 4.84-.56c4.35.51 5.21 3.24 5 4.37a2.93 2.93 0 0 1-1.38 2c-.3.19-.4.26-.37.39s.18.2.44.16a3.39 3.39 0 0 0 2.36-3c.12-2.7-2.43-5.64-7-5.61zM9.52 39.14c-1.44 1.58-3.46 2.18-4.32 1.67s-.57-2.86 1.2-4.54a23 23 0 0 1 3.4-2.54l.89-.54.1-.06L11 33a6.27 6.27 0 0 1-1.48 6.15zM20 32c-.5 1.23-1.55 4.37-2.19 4.2s-.88-2.53-.11-4.88a10.92 10.92 0 0 1 1.71-3.15c.79-.88 1.65-1.18 1.87-.81S20.34 31.21 20 32zm8.66 4.16c-.21.11-.41.19-.5.13l.09-.19s1.08-1.17 1.51-1.71c.24-.31.54-.68.85-1.09v.12c0 1.41-1.35 2.35-2 2.74zm6.68-1.53c-.16-.12-.14-.48.39-1.62a6.06 6.06 0 0 1 1.48-1.92 2.44 2.44 0 0 1 .15.84 2.76 2.76 0 0 1-1.99 2.67z"/></svg>